# xmcd
#
# Track frame offsets: 
#        150
#        15164
#        29163
#        47135
#        63599
#        78190
#        97776
#        114029
#        129859
#        144702
#        159802
#        176941
#
# Disc length: 2511 seconds
#
# Revision: 12
# Processed by: cddbd v1.5.2PL0 Copyright (c) Steve Scherf et al.
# Submitted via: ExactAudioCopy v1.3
#
DISCID=8c09cd0c
DTITLE=Rag 'n' Bone Man - Human
DYEAR=2017
DGENRE=Pop
TTITLE0=Human
TTITLE1=Innocent Man
TTITLE2=Skin
TTITLE3=Bitter End
TTITLE4=Be The Man
TTITLE5=Love You Any Less
TTITLE6=Odetta
TTITLE7=Grace
TTITLE8=Ego
TTITLE9=Arrow
TTITLE10=As You Are
TTITLE11=Die Easy
EXTD=
EXTT0=
EXTT1=
EXTT2=
EXTT3=
EXTT4=
EXTT5=
EXTT6=
EXTT7=
EXTT8=
EXTT9=
EXTT10=
EXTT11=
PLAYORDER=
